<svg
  width="32"
  height="32"
  viewBox="0 0 32 32"
  fill="none"
  xmlns="http://www.w3.org/2000/svg"
>
  <g clip-path="url(#clip0_1_208)">
    <path
      d="M21.2388 10.1368V11.1624H19.3378C19.3528 10.9957 19.3663 10.8275 19.3663 10.6533C19.3663 10.4762 19.3536 10.3065 19.3401 10.1375L21.2388 10.1368ZM13.2635 5.23791V3.7749H14.2904V5.24314C14.1091 5.22669 13.9279 5.21698 13.7466 5.21698C13.5856 5.21698 13.4245 5.22445 13.2635 5.23791ZM17.3987 6.39217L18.5746 5.08914L19.3378 5.77542L18.1372 7.10386C17.95 6.88183 17.6931 6.60149 17.3987 6.39217ZM9.356 7.10386L8.15536 5.77542L8.91859 5.08914L10.0945 6.39217C9.8009 6.60149 9.54325 6.88183 9.356 7.10386ZM8.15986 11.1624H6.25891V10.1368H8.15761C8.14413 10.3057 8.1314 10.4762 8.1314 10.6533C8.1314 10.8275 8.14488 10.9957 8.15986 11.1624ZM15.2468 17.9788H12.2509C12.0441 17.9788 11.8764 18.1463 11.8764 18.3526C11.8764 18.559 12.0441 18.7264 12.2509 18.7264H15.2468C15.4536 18.7264 15.6213 18.559 15.6213 18.3526C15.6213 18.1463 15.4536 17.9788 15.2468 17.9788ZM15.4341 19.4927H12.0636L12.9534 20.0773C13.0688 20.1805 13.238 20.2403 13.4141 20.2403H14.0844C14.2597 20.2403 14.4297 20.1805 14.545 20.0773L15.4341 19.4927ZM18.2428 10.6533C18.2428 13.3214 15.8356 15.1261 15.8356 17.2313H14.3458C14.3436 15.8423 14.9974 14.6977 15.6348 13.5928C16.2048 12.6023 16.7448 11.6663 16.7448 10.6533C16.7448 8.71563 15.1907 7.83349 13.7466 7.83349C12.3048 7.83349 10.7529 8.71563 10.7529 10.6533C10.7529 11.6663 11.2929 12.6023 11.8629 13.5928C12.5003 14.6977 13.1549 15.8423 13.1512 17.2313H11.6622C11.6622 15.1261 9.25489 13.3214 9.25489 10.6533C9.25489 7.87012 11.5004 6.33834 13.7466 6.33834C15.9943 6.33834 18.2428 7.87162 18.2428 10.6533Z"
      fill="#23BD92"
    />
    <path
      fill-rule="evenodd"
      clip-rule="evenodd"
      d="M22.4656 29.7664C21.8331 30.4051 20.7207 31.1596 20.2322 31.3781C20.1897 31.412 20.1467 31.4433 20.1033 31.4719L19.8249 31.6369L19.3673 31.787C18.6098 32.0294 17.9389 32.0388 17.3415 31.8504C17.1175 31.6584 17.0164 31.3576 17.043 30.9437L17.8904 28.7511L17.9488 28.0611C16.2735 26.8013 15.4642 25.0129 15.4642 23.0756C15.4642 19.473 18.9083 16.2909 23.6254 16.2909C28.3426 16.2909 31.9688 19.473 31.9688 23.0756C31.9688 26.6782 28.3426 29.8602 23.6254 29.8602C23.1977 29.8602 22.8015 29.8197 22.4656 29.7664ZM19.1987 29.9562C19.8024 29.5425 22.0561 27.9998 21.9724 27.8535C21.9724 27.8535 22.7 28.1027 23.6254 28.1027C27.2583 28.1027 30.2078 25.8501 30.2078 23.0756C30.2078 20.3011 27.2583 18.0485 23.6254 18.0485C19.9925 18.0485 17.2251 20.3011 17.2251 23.0756C17.2251 24.684 18.1054 25.9501 19.5752 27.0375C19.8649 27.366 19.8579 29.4005 19.1987 29.9562ZM19.1987 29.9562C19.0407 30.0645 18.9956 30.0954 19.135 30.0039C19.1568 29.9895 19.1781 29.9736 19.1987 29.9562Z"
      fill="#23BD92"
    />
    <path
      fill-rule="evenodd"
      clip-rule="evenodd"
      d="M14.7805 25.5019C13.7805 25.4661 12.8057 25.3521 11.8653 25.1677C11.8616 25.1786 11.8576 25.1894 11.8535 25.2C11.7464 25.4758 11.6866 25.7728 11.6436 26.0457C11.5206 26.8268 11.4782 27.4956 11.4111 27.719L11.0887 28.3616L10.5728 28.8347L9.90118 29.0946L9.15303 29.0813L8.69313 28.9172L8.27592 28.6311L7.92841 28.2239L7.67381 27.7227C7.23145 26.6316 6.69863 24.3569 6.42392 23.1153C2.48841 20.7779 0 16.981 0 12.7571C0 5.84014 6.8282 3.05176e-05 15.4642 3.05176e-05C24.1002 3.05176e-05 30.9283 5.84014 30.9283 12.7571C30.9283 14.1686 30.644 15.5352 30.118 16.8165C29.5873 16.5184 29.0168 16.2594 28.4136 16.045C28.8243 15.0075 29.046 13.9029 29.046 12.7571C29.046 6.75323 22.9602 1.87884 15.4642 1.87884C7.96818 1.87884 1.88235 6.75323 1.88235 12.7571C1.88235 16.5826 4.35309 19.9495 8.08513 21.8892C8.08513 21.8892 8.83091 25.5682 9.41869 27.0179C9.9254 28.2676 9.20598 24.0271 11.311 23.1165C12.2504 23.3582 13.2343 23.5202 14.2503 23.5924C14.3203 24.2564 14.5019 24.8966 14.7805 25.5019Z"
      fill="#23BD92"
    />
    <path
      d="M20.1824 24.0533C20.7812 24.0533 21.2665 23.5688 21.2665 22.9712C21.2665 22.3736 20.7812 21.8891 20.1824 21.8891C19.5837 21.8891 19.0983 22.3736 19.0983 22.9712C19.0983 23.5688 19.5837 24.0533 20.1824 24.0533Z"
      fill="#23BD92"
    />
    <path
      d="M23.6254 24.0533C24.2241 24.0533 24.7095 23.5688 24.7095 22.9712C24.7095 22.3736 24.2241 21.8891 23.6254 21.8891C23.0266 21.8891 22.5413 22.3736 22.5413 22.9712C22.5413 23.5688 23.0266 24.0533 23.6254 24.0533Z"
      fill="#23BD92"
    />
    <path
      d="M27.184 24.0533C27.7827 24.0533 28.2681 23.5688 28.2681 22.9712C28.2681 22.3736 27.7827 21.8891 27.184 21.8891C26.5852 21.8891 26.0999 22.3736 26.0999 22.9712C26.0999 23.5688 26.5852 24.0533 27.184 24.0533Z"
      fill="#23BD92"
    />
  </g>
  <defs>
    <clipPath id="clip0_1_208">
      <rect width="32" height="32" fill="white" />
    </clipPath>
  </defs>
</svg>
